<svg width="24" height="24" viewBox="0 0 24 24" fill="none" xmlns="http://www.w3.org/2000/svg">
<path d="M16.011 19.497L8.70297 12L16.011 4.50299C16.1418 4.36905 16.2151 4.18923 16.2151 4.00199C16.2151 3.81475 16.1418 3.63494 16.011 3.50099C15.9474 3.43614 15.8716 3.38461 15.7879 3.34944C15.7042 3.31426 15.6143 3.29614 15.5235 3.29614C15.4327 3.29614 15.3428 3.31426 15.2591 3.34944C15.1754 3.38461 15.0995 3.43614 15.036 3.50099L7.25997 11.4765C7.12345 11.6166 7.04705 11.8044 7.04705 12C7.04705 12.1956 7.12345 12.3834 7.25997 12.5235L15.0345 20.499C15.0981 20.5643 15.1741 20.6162 15.2581 20.6517C15.3421 20.6871 15.4323 20.7054 15.5235 20.7054C15.6146 20.7054 15.7049 20.6871 15.7889 20.6517C15.8728 20.6162 15.9489 20.5643 16.0125 20.499C16.1433 20.365 16.2166 20.1852 16.2166 19.998C16.2166 19.8108 16.1433 19.6309 16.0125 19.497H16.011Z" fill="#F5DEB3"/>
</svg>
