<svg width="24" height="24" viewBox="0 0 24 24" fill="none" xmlns="http://www.w3.org/2000/svg">
<g id="pajamas:comments" clip-path="url(#clip0_18_232)">
<path id="Vector" fill-rule="evenodd" clip-rule="evenodd" d="M3 0C2.20435 0 1.44129 0.316071 0.87868 0.87868C0.316071 1.44129 0 2.20435 0 3L0 18.09L1.92 16.17L4.215 13.875H6V16.5C6 17.2956 6.31607 18.0587 6.87868 18.6213C7.44129 19.1839 8.20435 19.5 9 19.5H19.5L21.75 21.75L24 24V9C24 8.20435 23.6839 7.44129 23.1213 6.87868C22.5587 6.31607 21.7956 6 21 6H18V3C18 2.20435 17.6839 1.44129 17.1213 0.87868C16.5587 0.316071 15.7956 0 15 0L3 0ZM15.75 6V3C15.75 2.80109 15.671 2.61032 15.5303 2.46967C15.3897 2.32902 15.1989 2.25 15 2.25H3C2.80109 2.25 2.61032 2.32902 2.46967 2.46967C2.32902 2.61032 2.25 2.80109 2.25 3V12.66L2.955 11.955L3.285 11.625H6V9C6 8.20435 6.31607 7.44129 6.87868 6.87868C7.44129 6.31607 8.20435 6 9 6H15.75ZM21.09 17.91L21.75 18.5685V9C21.75 8.80109 21.671 8.61032 21.5303 8.46967C21.3897 8.32902 21.1989 8.25 21 8.25H9C8.80109 8.25 8.61032 8.32902 8.46967 8.46967C8.32902 8.61032 8.25 8.80109 8.25 9V16.5C8.25 16.6989 8.32902 16.8897 8.46967 17.0303C8.61032 17.171 8.80109 17.25 9 17.25H20.4315L21.09 17.91Z" fill="#F5DEB3"/>
</g>
<defs>
<clipPath id="clip0_18_232">
<rect width="24" height="24" fill="white"/>
</clipPath>
</defs>
</svg>
