<svg width="25" height="24" viewBox="0 0 25 24" fill="none" xmlns="http://www.w3.org/2000/svg">
<g id="bx:like">
<path id="Vector" d="M20.3333 8H14.7213L15.8443 4.633C16.0463 4.025 15.9443 3.351 15.5693 2.831C15.1943 2.311 14.5863 2 13.9453 2H12.3333C12.0363 2 11.7553 2.132 11.5643 2.36L6.86431 8H4.33331C3.23031 8 2.33331 8.897 2.33331 10V19C2.33331 20.103 3.23031 21 4.33331 21H17.6403C18.0472 20.9986 18.4441 20.8738 18.7785 20.6421C19.113 20.4103 19.3692 20.0825 19.5133 19.702L22.2703 12.351C22.3122 12.2387 22.3335 12.1198 22.3333 12V10C22.3333 8.897 21.4363 8 20.3333 8ZM4.33331 10H6.33331V19H4.33331V10ZM20.3333 11.819L17.6403 19H8.33331V9.362L12.8013 4H13.9473L12.3853 8.683C12.3346 8.83331 12.3205 8.99355 12.3441 9.15043C12.3676 9.3073 12.4283 9.45629 12.521 9.58504C12.6137 9.71379 12.7357 9.8186 12.877 9.89076C13.0182 9.96293 13.1747 10.0004 13.3333 10H20.3333V11.819Z" fill="#F5DEB3"/>
</g>
</svg>
