<svg xmlns="http://www.w3.org/2000/svg" width="17" height="16" viewBox="0 0 17 16" fill="none">
  <g clip-path="url(#clip0_3_24)">
    <path d="M12.242 10.344C13.2103 9.0227 13.644 7.3845 13.4563 5.75716C13.2686 4.12982 12.4734 2.63335 11.2298 1.56714C9.98611 0.50093 8.38575 -0.0563875 6.74883 0.00668566C5.11192 0.0697588 3.55918 0.748571 2.40127 1.90732C1.24335 3.06606 0.565648 4.61929 0.503746 6.25624C0.441844 7.8932 1.00031 9.49317 2.06741 10.7361C3.1345 11.9789 4.63154 12.7731 6.25902 12.9596C7.88649 13.1461 9.52438 12.7112 10.845 11.742H10.844C10.874 11.782 10.906 11.82 10.942 11.857L14.792 15.707C14.9795 15.8946 15.2339 16.0001 15.4991 16.0002C15.7644 16.0003 16.0189 15.895 16.2065 15.7075C16.3941 15.52 16.4996 15.2656 16.4997 15.0004C16.4998 14.7351 16.3945 14.4806 16.207 14.293L12.357 10.443C12.3212 10.4068 12.2828 10.3744 12.242 10.344ZM12.5 6.50001C12.5 7.22228 12.3577 7.93748 12.0813 8.60477C11.8049 9.27206 11.3998 9.87837 10.8891 10.3891C10.3784 10.8998 9.77205 11.3049 9.10476 11.5813C8.43747 11.8577 7.72227 12 7 12C6.27773 12 5.56253 11.8577 4.89524 11.5813C4.22795 11.3049 3.62163 10.8998 3.11091 10.3891C2.60019 9.87837 2.19506 9.27206 1.91866 8.60477C1.64226 7.93748 1.5 7.22228 1.5 6.50001C1.5 5.04132 2.07946 3.64237 3.11091 2.61092C4.14236 1.57947 5.54131 1.00001 7 1.00001C8.45869 1.00001 9.85763 1.57947 10.8891 2.61092C11.9205 3.64237 12.5 5.04132 12.5 6.50001Z" fill="#131524"/>
  </g>
  <defs>
    <clipPath id="clip0_3_24">
      <rect width="16" height="16" fill="white" transform="translate(0.5)"/>
    </clipPath>
  </defs>
</svg>