<svg width="25" height="24" viewBox="0 0 25 24" fill="none" xmlns="http://www.w3.org/2000/svg">
<g id="ri:share-line">
<path id="Vector" d="M13.7867 17.023L9.58766 14.733C9.03945 15.3191 8.32764 15.7267 7.54473 15.9029C6.76182 16.0791 5.94401 16.0157 5.19758 15.721C4.45115 15.4263 3.81062 14.914 3.35922 14.2504C2.90783 13.5869 2.66645 12.803 2.66645 12.0005C2.66645 11.198 2.90783 10.4141 3.35922 9.75056C3.81062 9.08705 4.45115 8.57465 5.19758 8.27996C5.94401 7.98527 6.76182 7.92191 7.54473 8.09811C8.32764 8.27432 9.03945 8.68194 9.58766 9.268L13.7877 6.978C13.5496 6.03396 13.6639 5.0355 14.1094 4.16977C14.5548 3.30404 15.3007 2.63049 16.2072 2.27537C17.1137 1.92025 18.1187 1.90795 19.0336 2.24078C19.9485 2.5736 20.7107 3.2287 21.1772 4.08326C21.6437 4.93783 21.7824 5.9332 21.5675 6.88278C21.3526 7.83236 20.7987 8.67096 20.0097 9.24137C19.2207 9.81179 18.2508 10.0749 17.2817 9.98127C16.3126 9.88768 15.4109 9.44386 14.7457 8.733L10.5457 11.023C10.7069 11.6644 10.7069 12.3356 10.5457 12.977L14.7457 15.267C15.4113 14.5565 16.3131 14.1131 17.2823 14.02C18.2514 13.9269 19.2212 14.1904 20.0099 14.7612C20.7986 15.332 21.3521 16.1708 21.5666 17.1205C21.781 18.0701 21.6418 19.0654 21.175 19.9197C20.7081 20.7741 19.9457 21.4288 19.0306 21.7613C18.1156 22.0937 17.1107 22.081 16.2043 21.7255C15.298 21.37 14.5524 20.6962 14.1073 19.8303C13.6622 18.9644 13.5482 17.9659 13.7867 17.022V17.023ZM6.66666 14C7.19709 14 7.7058 13.7893 8.08087 13.4142C8.45594 13.0391 8.66666 12.5304 8.66666 12C8.66666 11.4696 8.45594 10.9609 8.08087 10.5858C7.7058 10.2107 7.19709 10 6.66666 10C6.13622 10 5.62752 10.2107 5.25244 10.5858C4.87737 10.9609 4.66666 11.4696 4.66666 12C4.66666 12.5304 4.87737 13.0391 5.25244 13.4142C5.62752 13.7893 6.13622 14 6.66666 14ZM17.6667 8C18.1971 8 18.7058 7.78929 19.0809 7.41421C19.4559 7.03914 19.6667 6.53043 19.6667 6C19.6667 5.46957 19.4559 4.96086 19.0809 4.58579C18.7058 4.21071 18.1971 4 17.6667 4C17.1362 4 16.6275 4.21071 16.2524 4.58579C15.8774 4.96086 15.6667 5.46957 15.6667 6C15.6667 6.53043 15.8774 7.03914 16.2524 7.41421C16.6275 7.78929 17.1362 8 17.6667 8ZM17.6667 20C18.1971 20 18.7058 19.7893 19.0809 19.4142C19.4559 19.0391 19.6667 18.5304 19.6667 18C19.6667 17.4696 19.4559 16.9609 19.0809 16.5858C18.7058 16.2107 18.1971 16 17.6667 16C17.1362 16 16.6275 16.2107 16.2524 16.5858C15.8774 16.9609 15.6667 17.4696 15.6667 18C15.6667 18.5304 15.8774 19.0391 16.2524 19.4142C16.6275 19.7893 17.1362 20 17.6667 20Z" fill="#F5DEB3"/>
</g>
</svg>
